HIERARCHY
ROOT locator2
{
  OFFSET 53.6172 30.1899 0.816905
  CHANNELS 6 Xposition Yposition Zposition Zrotation Xrotation Yrotation
  JOINT koshi
  {
    OFFSET 0 0 0
    CHANNELS 6 Xposition Yposition Zposition Zrotation Xrotation Yrotation
    JOINT sippo01
    {
      OFFSET 0 42.8363 -0.548134
      CHANNELS 6 Xposition Yposition Zposition Zrotation Xrotation Yrotation
      JOINT sippo02
      {
        OFFSET 0 44.0461 -3.28882
        CHANNELS 6 Xposition Yposition Zposition Zrotation Xrotation Yrotation
        JOINT sippo03
        {
          OFFSET 0 34.1929 -2.46662
          CHANNELS 6 Xposition Yposition Zposition Zrotation Xrotation Yrotation
          JOINT sippo04
          {
            OFFSET 0 30.0959 -1.75404
            CHANNELS 6 Xposition Yposition Zposition Zrotation Xrotation Yrotation
            JOINT sippo05
            {
              OFFSET 0 28.3637 -1.75404
              CHANNELS 6 Xposition Yposition Zposition Zrotation Xrotation Yrotation
              JOINT sippo06
              {
                OFFSET 0 31.6071 -3.2043
                CHANNELS 6 Xposition Yposition Zposition Zrotation Xrotation Yrotation
                End Site
                {
                  OFFSET 0 0 0
                }
              }
            }
          }
        }
      }
    }
    JOINT R_momo
    {
      OFFSET -27.891 13.5892 3.92723
      CHANNELS 6 Xposition Yposition Zposition Zrotation Xrotation Yrotation
      JOINT R_hiza
      {
        OFFSET 0 28.01 1.8232
        CHANNELS 6 Xposition Yposition Zposition Zrotation Xrotation Yrotation
        JOINT R_ashi
        {
          OFFSET 0 24.3992 -2.49174
          CHANNELS 6 Xposition Yposition Zposition Zrotation Xrotation Yrotation
          End Site
          {
            OFFSET 0 0 0
          }
        }
      }
    }
    JOINT L_momo
    {
      OFFSET 27.891 13.5892 3.92714
      CHANNELS 6 Xposition Yposition Zposition Zrotation Xrotation Yrotation
      JOINT L_hiza
      {
        OFFSET 0 28.0098 1.82319
        CHANNELS 6 Xposition Yposition Zposition Zrotation Xrotation Yrotation
        JOINT L_ashi
        {
          OFFSET 0 24.3992 -2.49171
          CHANNELS 6 Xposition Yposition Zposition Zrotation Xrotation Yrotation
          End Site
          {
            OFFSET 0 0 0
          }
        }
      }
    }
  }
  JOINT hara
  {
    OFFSET 0 2.15392 0
    CHANNELS 6 Xposition Yposition Zposition Zrotation Xrotation Yrotation
    JOINT mune
    {
      OFFSET 0 62.0609 0.472494
      CHANNELS 6 Xposition Yposition Zposition Zrotation Xrotation Yrotation
      JOINT R_kata
      {
        OFFSET 22.6695 9.65301 -5.3622
        CHANNELS 6 Xposition Yposition Zposition Zrotation Xrotation Yrotation
        JOINT R_hiji
        {
          OFFSET 0 25.813 1.69098
          CHANNELS 6 Xposition Yposition Zposition Zrotation Xrotation Yrotation
          JOINT R_te
          {
            OFFSET 0 28.5636 -0.966307
            CHANNELS 6 Xposition Yposition Zposition Zrotation Xrotation Yrotation
            End Site
            {
              OFFSET 0 0 0
            }
          }
        }
      }
      JOINT L_kata
      {
        OFFSET -22.6695 9.65298 -5.3622
        CHANNELS 6 Xposition Yposition Zposition Zrotation Xrotation Yrotation
        JOINT L_hiji
        {
          OFFSET 0 25.813 1.69102
          CHANNELS 6 Xposition Yposition Zposition Zrotation Xrotation Yrotation
          JOINT L_te
          {
            OFFSET 0 28.5636 -0.966295
            CHANNELS 6 Xposition Yposition Zposition Zrotation Xrotation Yrotation
            End Site
            {
              OFFSET 0 0 0
            }
          }
        }
      }
      JOINT kubi
      {
        OFFSET 0 23.1438 -0.944988
        CHANNELS 6 Xposition Yposition Zposition Zrotation Xrotation Yrotation
        JOINT atama
        {
          OFFSET 0 20.8625 4.12737
          CHANNELS 6 Xposition Yposition Zposition Zrotation Xrotation Yrotation
          JOINT ago
          {
            OFFSET 0 7.552 -7.58201
            CHANNELS 6 Xposition Yposition Zposition Zrotation Xrotation Yrotation
            End Site
            {
              OFFSET 0 0 0
            }
          }
        }
      }
    }
  }
}
MOTION
Frames:	8
Frame Time:	0.0333333
60.0189 29.9804 -0.635009 -90 -3.50835e-015 -90 0 0 0 -172.021 2.20535 0.314469 -4.76837e-007 42.8363 -0.548141 2.14812 -13.2685 3.83497 -1.77636e-015 44.0461 -3.28882 4.43071 10.1238 -3.87293 8.88178e-016 34.1929 -2.46661 5.21735 4.24744 0.520053 -2.26498e-006 30.0959 -1.75404 7.16686 11.2366 -1.28557 -6.67572e-006 28.3637 -1.75404 9.80702 -4.17675 5.41673 1.14441e-005 31.6072 -3.2043 5.63338 -3.10863 -6.9836 -27.891 13.5892 3.92723 131.073 -11.1414 -40.711 1.90735e-006 28.0099 1.8232 -173.579 -80.2661 -163.015 3.8147e-006 24.3992 -2.49173 -65.8814 85.0965 114.903 27.891 13.5892 3.92714 -76.604 -28.3559 88.898 -3.8147e-006 28.0098 1.82319 -2.46827 -53.568 12.5063 0 24.3992 -2.49173 125.761 71.7451 167.177 5.96046e-007 2.15392 0 -4.01945 -2.01323 -3.44666 4.44089e-016 62.0609 0.472496 -2.79723e-007 -2.13279e-008 8.29341e-008 22.6695 9.65299 -5.36221 -137.237 33.2522 32.2728 -2.28882e-005 25.813 1.69098 -179.672 -67.3245 -175.962 -7.6294e-006 28.5636 -0.966316 21.646 -4.2464 -73.0841 -22.6695 9.65299 -5.36221 143.711 -6.90553 -49.8395 -1.42109e-014 25.813 1.69102 -179.688 -61.2601 -175.283 -7.6294e-006 28.5636 -0.966299 -53.1622 34.6113 124.305 -9.53674e-007 23.1438 -0.944998 -11.5514 2.97207 -16.9293 1.90735e-006 20.8625 4.12737 15.4445 0.0652349 2.23564 1.90735e-006 7.55203 -7.582 -9.01973e-007 6.29692 -2.72667e-007 
61.7104 29.9583 -0.56114 -90 -3.50835e-015 -90 0 0 0 -172.358 1.77356 0.338537 -4.76837e-007 42.8363 -0.548141 1.72557 -12.4342 3.9765 3.52786e-008 44.0461 -3.28882 4.23522 10.3935 -3.27485 3.7621e-008 34.1929 -2.46661 5.01651 5.28474 1.23779 -2.19423e-006 30.0959 -1.75404 7.49047 11.9107 -1.66334 -6.61583e-006 28.3637 -1.75404 10.114 -3.88378 5.40373 1.1452e-005 31.6072 -3.20431 5.64437 -2.48795 -7.38918 -27.891 13.5892 3.92723 132.64 -8.7377 -39.3884 1.88247e-006 28.0099 1.8232 -174.468 -79.8679 -163.131 3.80513e-006 24.3992 -2.49173 -50.4597 85.204 97.3641 27.891 13.5892 3.92714 -70.8167 -27.8566 93.1989 -3.79303e-006 28.0098 1.82319 -2.3042 -47.8157 11.973 -1.89564e-008 24.3992 -2.49173 121.778 72.6622 169.044 5.96046e-007 2.15392 0 -3.34675 -1.6349 -3.52108 1.7053e-013 62.0609 0.472496 -2.79723e-007 -2.13279e-008 8.29341e-008 22.6695 9.65299 -5.36221 -135.5 32.9244 34.2533 -2.28882e-005 25.813 1.69098 -179.681 -70.0388 -175.548 -7.63252e-006 28.5636 -0.966316 11.0699 -4.81066 -72.0127 -22.6695 9.65299 -5.36221 148.653 -7.99784 -45.6859 1.42109e-014 25.813 1.69102 -179.715 -57.9987 -174.604 -7.57938e-006 28.5636 -0.966299 -56.9814 30.9707 127.504 -9.53674e-007 23.1438 -0.944998 -12.0913 3.20386 -17.3335 1.90735e-006 20.8625 4.12737 19.4674 -0.454593 2.89714 2.11361e-006 7.55203 -7.582 -6.4846e-008 6.29653 -1.67873e-007 
66.2273 29.9367 -0.488704 -90 -3.50835e-015 -90 0 0 0 -172.688 1.34967 0.357291 -4.76837e-007 42.8363 -0.548141 1.31035 -10.828 4.1089 6.9914e-008 44.0461 -3.28882 3.42116 10.6648 -2.57246 3.77969e-008 34.1929 -2.46662 4.04528 6.88333 2.43046 -2.10538e-006 30.0959 -1.75404 7.27209 12.5875 -1.92519 -6.5603e-006 28.3637 -1.75404 9.91398 -0.996469 4.90162 1.12911e-005 31.6072 -3.20431 5.65369 -0.497876 -8.40579 -27.891 13.5892 3.92723 132.971 -6.12839 -34.499 1.9134e-006 28.0099 1.8232 -174.152 -81.5131 -163.571 3.88856e-006 24.3992 -2.49173 -35.7305 84.9669 76.2026 27.891 13.5892 3.92714 -66.7161 -26.923 94.45 -3.73595e-006 28.0098 1.82319 -2.32908 -45.6445 13.316 1.39706e-007 24.3992 -2.49173 123.418 72.3918 168.028 5.96046e-007 2.15392 0 -1.31652 -0.361364 -3.55132 1.14575e-013 62.0609 0.472496 -2.79723e-007 -2.13279e-008 8.29341e-008 22.6695 9.65299 -5.36221 -137.676 27.4417 35.9653 -2.28882e-005 25.813 1.69098 -179.633 -75.7705 -176.138 -7.57297e-006 28.5636 -0.966316 9.0412 -5.16113 -74.7825 -22.6695 9.65299 -5.36221 156.199 -7.65436 -39.1116 -1.42109e-014 25.813 1.69102 -179.709 -58.3968 -173.902 -7.54494e-006 28.5636 -0.966299 -55.2033 21.3421 126.653 -9.53674e-007 23.1438 -0.944998 -11.3599 1.79653 -16.3055 1.90735e-006 20.8625 4.12737 21.4521 -1.03401 3.14248 2.19495e-006 7.55203 -7.582 -2.75598e-006 6.25736 -1.01494e-007 
71.2028 29.9148 -0.356675 -90 -3.50835e-015 -90 0 0 0 -173.273 0.734001 0.397734 -4.76837e-007 42.8363 -0.548141 0.896773 -9.20475 4.26669 1.04879e-007 44.0461 -3.28882 2.59749 10.9373 -1.94594 3.64637e-008 34.1929 -2.46662 3.06094 8.50033 3.69103 -1.9928e-006 30.0959 -1.75404 7.0506 13.271 -2.47809 -6.498e-006 28.3637 -1.75404 9.73745 2.17106 4.37104 1.11434e-005 31.6072 -3.20431 5.66946 1.50877 -9.43285 -27.891 13.5892 3.92723 133.031 -3.52768 -28.967 1.95204e-006 28.0099 1.8232 -173.387 -83.4674 -164.038 3.98418e-006 24.3992 -2.49173 -22.9443 84.4318 56.3219 27.891 13.5892 3.92714 -62.7644 -25.5538 94.9851 -3.65174e-006 28.0098 1.82319 -2.37228 -43.8943 14.9018 3.29153e-007 24.3992 -2.49173 125.023 71.6967 167.327 5.96046e-007 2.15392 0 0.730971 0.926888 -3.67366 -4.44089e-016 62.0609 0.472496 -2.79723e-007 -2.13279e-008 8.29341e-008 22.6695 9.65299 -5.36221 -139.895 21.2403 37.338 -2.28882e-005 25.813 1.69098 -179.509 -81.5589 -176.869 -7.51705e-006 28.5636 -0.966317 8.03186 -5.72898 -77.9845 -22.6695 9.65299 -5.36221 163.822 -6.54956 -32.5028 0 25.813 1.69102 -179.7 -59.266 -173.187 -7.51334e-006 28.5636 -0.9663 -55.3969 11.2451 125.85 -9.53674e-007 23.1438 -0.944998 -10.629 0.197835 -14.8887 1.90735e-006 20.8625 4.12737 23.0601 -1.68996 3.35907 2.25018e-006 7.55203 -7.582 -1.01457e-005 6.25736 9.5648e-007 
75.085 29.8928 -0.223351 -90 -3.50835e-015 -90 0 0 0 -173.859 0.114826 0.42453 -4.76837e-007 42.8363 -0.548141 0.484224 -7.92894 4.45323 1.40173e-007 44.0461 -3.28882 1.7426 11.211 -1.30045 3.62823e-008 34.1929 -2.46662 2.1753 9.67302 5.01088 -1.85601e-006 30.0959 -1.75404 6.56964 13.9625 -2.96818 -6.40775e-006 28.3637 -1.75404 9.32445 5.3749 3.87866 1.10544e-005 31.6072 -3.20431 5.69095 3.28799 -10.4454 -27.891 13.5892 3.92723 132.343 -2.12421 -24.7233 1.98608e-006 28.0099 1.8232 -171.866 -85.4784 -163.764 4.06013e-006 24.3992 -2.49173 -12.7425 83.6689 40.1303 27.891 13.5892 3.92714 -60.9378 -24.7614 94.7202 -3.59597e-006 28.0098 1.82319 -2.51215 -44.3965 16.5458 5.23308e-007 24.3992 -2.49173 127.619 70.6903 166.348 5.96046e-007 2.15392 -3.55271e-015 2.523 2.05902 -3.87293 1.77636e-015 62.0609 0.472496 -2.79723e-007 -2.13279e-008 8.29342e-008 22.6695 9.65299 -5.36221 -141.248 15.4402 36.5196 -2.28882e-005 25.813 1.69098 -179.281 -85.6602 -177.506 -7.4842e-006 28.5636 -0.966317 11.7054 -5.30864 -80.8296 -22.6695 9.65299 -5.36221 169.521 -5.17548 -27.7343 1.42109e-014 25.813 1.69102 -179.676 -61.5474 -172.449 -7.49306e-006 28.5636 -0.9663 -55.0474 3.24715 124.73 -9.53674e-007 23.1438 -0.944998 -9.90094 -1.42505 -13.0361 1.90735e-006 20.8625 4.12737 23.0501 -2.45086 3.48683 2.23361e-006 7.55203 -7.582 -6.35704e-006 6.2014 9.64208e-006 
79.4048 29.8711 -0.0926156 -90 -3.50835e-015 -90 0 0 0 -174.436 -0.497496 0.439152 -4.76837e-007 42.8363 -0.548141 0.182587 -6.67787 4.66552 1.65685e-007 44.0461 -3.28882 0.902923 11.4771 -0.659827 3.14281e-008 34.1929 -2.46662 1.30146 10.8221 5.63663 -1.75704e-006 30.0959 -1.75404 6.08016 14.0567 -3.37276 -6.34753e-006 28.3637 -1.75404 8.93998 8.34317 3.46792 1.09986e-005 31.6072 -3.20431 5.71791 5.03247 -11.3188 -27.891 13.5892 3.92723 131.632 -0.783213 -19.7072 2.02371e-006 28.0099 1.8232 -168.062 -87.4425 -161.187 4.10929e-006 24.3992 -2.49173 -7.95163 83.1189 29.4632 27.891 13.5892 3.92714 -59.8007 -24.6815 92.3983 -3.52425e-006 28.0098 1.82319 -3.10322 -44.8775 17.836 6.98849e-007 24.3992 -2.49173 129.898 69.6689 165.645 5.96046e-007 2.15392 -3.55271e-015 4.28327 3.16411 -4.13644 2.84217e-014 62.0609 0.472496 -2.79724e-007 -2.13279e-008 8.29341e-008 22.6695 9.65299 -5.36221 -142.182 8.67889 36.2945 -2.28882e-005 25.813 1.69098 -4.49005 -89.543 -3.56627 -7.46408e-006 28.5636 -0.966317 15.3724 -7.34333 -84.3914 -22.6695 9.65299 -5.36221 174.567 -3.72208 -25.6184 0 25.813 1.69102 -179.647 -63.7831 -171.72 -7.47885e-006 28.5636 -0.966301 -56.3214 -5.23219 122.491 -9.53674e-007 23.1438 -0.944998 -9.28248 -3.10526 -10.833 1.90735e-006 20.8625 4.12737 20.8203 -3.41337 3.5508 2.12196e-006 7.55203 -7.582 -1.32099e-007 6.2014 4.52131e-007 
84.6175 29.8493 0.039414 -90 -3.50835e-015 -90 0 0 0 -175.017 -1.11584 0.441591 -4.76837e-007 42.8363 -0.548141 -0.120942 -5.75957 4.89249 1.91479e-007 44.0461 -3.28882 0.0526148 11.7437 -0.00504417 2.879e-008 34.1929 -2.46662 0.0390319 11.3901 6.38269 -1.63382e-006 30.0959 -1.75404 5.58508 14.1505 -3.7801 -6.24187e-006 28.3637 -1.75404 8.56213 11.0684 3.13589 1.10554e-005 31.6072 -3.20431 5.14699 6.49677 -12.1037 -27.891 13.5892 3.92723 131.307 -0.369663 -14.4616 2.0676e-006 28.0099 1.8232 -114.175 -89.5419 -108.944 4.14661e-006 24.3992 -2.49173 -5.15464 82.9536 22.0816 27.891 13.5892 3.92714 -61.7834 -23.8496 87.3533 -3.41758e-006 28.0098 1.82319 -4.15956 -51.1694 21.1178 1.05768e-006 24.3992 -2.49173 137.189 66.6547 163.592 5.96046e-007 2.15392 -3.55271e-015 5.97373 4.14797 -4.45213 0 62.0609 0.472496 -1.02976e-005 -2.13279e-008 8.29395e-008 22.6695 9.65299 -5.36221 -144.652 0.0808885 34.1294 -2.28882e-005 25.813 1.69098 -0.144084 -82.6524 -0.0685266 -7.46038e-006 28.5636 -0.966317 25.1086 -8.92134 -88.7396 -22.6695 9.65299 -5.36221 179.285 -1.9278 -23.7612 -3.55271e-015 25.813 1.69102 -179.559 -69.1691 -170.92 -7.50846e-006 28.5636 -0.966301 -59.83 -13.9715 117.773 -9.53674e-007 23.1438 -0.944998 -8.75246 -4.55223 -8.16617 1.90735e-006 20.8625 4.12737 16.967 -4.53434 3.44252 1.92647e-006 7.55203 -7.582 -1.86282e-006 6.2014 7.59098e-007 
90.2579 30.0874 0.17227 -90 -3.50835e-015 -90 0 0 0 -175.6 -1.73736 0.431175 -4.76837e-007 42.8363 -0.548141 -0.426384 -4.83181 5.14919 2.1738e-007 44.0461 -3.28882 -0.934165 12.0095 0.691489 2.09694e-008 34.1929 -2.46662 -1.24194 11.9585 7.16249 -1.50331e-006 30.0959 -1.75404 4.23004 14.261 -3.97963 -6.15724e-006 28.3637 -1.75404 7.33756 13.8002 3.04774 1.11555e-005 31.6072 -3.20431 4.57003 7.95351 -12.865 -27.891 13.5892 3.92723 130.923 -1.03893 -12.3075 2.0878e-006 28.0099 1.8232 -8.1491 -87.8726 -5.11801 4.19772e-006 24.3992 -2.49173 -2.61737 82.8161 14.9981 27.891 13.5892 3.92714 -64.101 -22.6029 80.4284 -3.25554e-006 28.0098 1.82319 -5.80447 -58.5344 24.4909 1.32511e-006 24.3992 -2.49173 142.926 63.192 164.423 5.96046e-007 2.15392 0 7.67133 5.13203 -4.64877 5.68434e-014 62.0609 0.472496 -1.02976e-005 -2.13298e-008 1.01008e-005 22.6695 9.65299 -5.36221 -146.324 -7.51236 31.1912 -2.28882e-005 25.813 1.69098 -0.00156131 -74.931 -0.782738 -7.48161e-006 28.5636 -0.966318 35.9658 -13.7596 -90.7414 -22.6695 9.65299 -5.36221 -179.601 -0.122589 -22.2288 0 25.813 1.69102 -179.306 -76.6724 -169.965 -7.59704e-006 28.5636 -0.9663 -62.1979 -21.8426 112.248 -9.53674e-007 23.1438 -0.944998 -8.31243 -5.84096 -5.43014 1.90735e-006 20.8625 4.12737 11.9821 -5.71088 3.17232 1.65923e-006 7.55203 -7.582 -1.01439e-005 6.14545 9.36709e-007 
